<svg id="Layer_1" data-name="Layer 1" xmlns="http://www.w3.org/2000/svg" viewBox="0 0 376.33 153.94"><defs><style>.cls-1{opacity:0.7;}.cls-2{fill:#202020;}.cls-3{fill:none;stroke:#202020;stroke-width:0;}</style></defs><title>services</title><g class="cls-1"><path class="cls-2" d="M20,45.21l.67-2c.23-.66.6-1.46,1-2.41.21-.48.49-1,.76-1.5a15,15,0,0,1,.94-1.66A34.08,34.08,0,0,1,29.65,30a42.44,42.44,0,0,1,11.24-7.38l.38-.16c.25-.1.62-.27,1.14-.44l1.91-.67c.77-.22,1.67-.49,2.7-.76a56.49,56.49,0,0,1,18.74-1.15A92.16,92.16,0,0,1,79.47,21.8c2.5.61,5.1,1.35,7.8,2.17s5.51,1.82,8.42,2.77c11.65,4,24.78,9.6,39.92,15.64,7.56,3,15.66,6.09,24.45,8.82a162.29,162.29,0,0,0,28.53,6.38l3.87.43c.66.06,1.3.16,2,.19l2,.08,4,.16c.67,0,1.35.07,2,.06l2-.06,4.11-.15c.69,0,1.38,0,2.07-.09l2.07-.2c1.39-.13,2.79-.26,4.17-.48s2.79-.36,4.17-.63c11.15-1.9,22.16-5.48,33.14-9.49s22-8.51,33.4-12.11A166.56,166.56,0,0,1,323.46,28c12.39-1,25.23-.15,37.47,3.78a45.28,45.28,0,0,1,16,8.73,24.35,24.35,0,0,1,5.33,6.57,17,17,0,0,1,2.09,7.66,21.28,21.28,0,0,1-.08,3.07l-.14,1c-.11.65-.28,1.64-.62,3S382.7,64.82,382,67s-1.69,4.66-2.8,7.73A68.38,68.38,0,0,0,376,85.89a32.37,32.37,0,0,0-.48,7.54,25.28,25.28,0,0,0,2,8.5,36,36,0,0,0,4.5,7.41c1.6,2.15,3.15,4.09,4.27,6a19.63,19.63,0,0,1,2.28,6.07,21.61,21.61,0,0,1,.09,7.24,4,4,0,0,1-.11.77c-.13.49-.19,1.24-.47,2.17a27.78,27.78,0,0,1-3.09,7.54c-.47.72-.89,1.53-1.46,2.26l-.84,1.15-.94,1.13a13.27,13.27,0,0,1-1,1.11c-.36.36-.69.75-1.1,1.11-.8.72-1.62,1.46-2.54,2.15A45.63,45.63,0,0,1,364,154.94a76,76,0,0,1-15.75,3.57l-2,.23c-.67.07-1.34.1-2,.15l-4,.28c-2.6.26-5.14.19-7.57.23l-3.55,0-3.36-.15c-2.17-.12-4.19-.14-6-.3-3.66-.34-6.59-.53-8.48-.72l-4.41-.39c-2.92-.22-7.26-.8-13-1.65s-12.77-2.18-21.11-3.95-17.95-3.93-28.84-6.12a275.59,275.59,0,0,0-36.52-5.26,211.31,211.31,0,0,0-43.84,1.91A313.76,313.76,0,0,0,114,154.31c-8.65,2.69-17.54,5.75-26.89,8.2s-19.23,4.28-29.39,4c0,0,.36,0,1,0l3.1,0a96.84,96.84,0,0,0,12-1.08,154.8,154.8,0,0,0,18.73-4.31c7.23-2.08,15.36-4.86,24.42-7.65s19.15-5.55,30.18-7.85c2.75-.61,5.58-1.09,8.44-1.65s5.8-1,8.79-1.39c6-.86,12.17-1.55,18.57-1.92s13-.52,19.75-.29l5.1.26c1.71.09,3.42.3,5.15.44s3.47.28,5.21.5l5.26.69c14.1,1.89,28.65,5.21,43.7,8.44,0,0,2,.78,6.27,2.19,2.12.71,4.8,1.57,8.07,2.53s7.14,2,11.63,3.17a180.8,180.8,0,0,0,35,5.25,126.37,126.37,0,0,0,23.56-1.31,73.71,73.71,0,0,0,12.86-3.3,50.75,50.75,0,0,0,12.54-6.49,12.44,12.44,0,0,1-1.18,1,22.07,22.07,0,0,1-1.77,1.36l-1.27.88-1.58,1a53.21,53.21,0,0,1-10.07,4.51,78.31,78.31,0,0,1-17.41,3.54l-5.62.52c-2,.12-4,.12-6.16.18l-3.28.06-3.42-.13-3.55-.15L320,165.5l-1.85-.17a241.92,241.92,0,0,1-34.37-5.57c-6.44-1.46-13.27-3.13-20.49-4.93s-14.85-3.72-23-5.54c-16.21-3.64-34.3-6.73-54.75-6l6.59-.09,4.13,0c1.57,0,3.34.12,5.32.18s4.18.27,6.61.42l8,.84c11.65,1.36,27.17,4.64,47.84,9.78,10.34,2.51,22,5.46,35.34,7.89,3.31.66,6.78,1.12,10.32,1.66,1.76.3,3.58.45,5.41.66s3.68.43,5.56.57l5.74.34c1,.05,1.94.14,2.92.14h3c2,0,4,0,6,0l6.2-.38-4.52.61-2.46.3-2.94.16-3.41.17c-1.21.05-2.5.13-3.84.08l-4.26-.08c-1.48,0-3,0-4.64-.19l-5-.41c-.86-.08-1.74-.14-2.62-.24l-2.68-.35-5.59-.78c-1.9-.31-3.84-.68-5.82-1l-3-.56-3-.66c-2.05-.45-4.13-.91-6.24-1.41l3.47.66c2.3.43,5.72,1.13,10.31,1.86l3.63.61c1.28.2,2.65.37,4.08.57l4.49.61c1.57.2,3.23.32,4.94.5a162.72,162.72,0,0,0,24,.69l7-.48c2.41-.25,4.88-.56,7.4-1a76.22,76.22,0,0,0,15.62-4.37A50.15,50.15,0,0,0,384.61,151a37.47,37.47,0,0,0,10.14-16.69A32.11,32.11,0,0,0,396,123.92a26.14,26.14,0,0,0-2.7-10.49c-1.63-3.37-4.06-6.11-6.13-9a21.38,21.38,0,0,1-4.42-9.32,26.09,26.09,0,0,1,.66-10.78,110.35,110.35,0,0,1,3.58-11,83.6,83.6,0,0,0,3.53-11.63,26.94,26.94,0,0,0-.1-12.59,25.53,25.53,0,0,1,.76,4.83,29.23,29.23,0,0,1-.12,4.25,42.05,42.05,0,0,1-1.26,6.54c-1,3.51-1.72,5.47-1.95,6.2s0,.19.54-1.46a60,60,0,0,0,2.36-8.33,30.94,30.94,0,0,0,.61-6.71,24.23,24.23,0,0,0-1.59-8,27.4,27.4,0,0,0-4.86-8,38.78,38.78,0,0,0-7.86-6.88A54.51,54.51,0,0,0,367,26.2l-1.38-.55-1.42-.49c-.94-.36-1.92-.62-2.89-.91l-3-.86c-1-.26-2-.48-3-.72a100.81,100.81,0,0,0-12.76-2.05A116.06,116.06,0,0,0,329,20.25,146.11,146.11,0,0,0,301,24,226,226,0,0,0,273.1,32.4C264,35.74,255,39.36,246,42.48c-4.47,1.56-8.91,3-13.34,4.25s-8.84,2.26-13.2,3c-1.08.22-2.18.33-3.26.5s-2.15.32-3.23.41l-3.2.31-3.17.12-3.13.11c-.52,0-1,0-1.55,0l-1.54-.06-6-.26a139,139,0,0,1-21.71-3.74c-1.63-.4-3.2-.89-4.73-1.32s-3-.83-4.44-1.33c-2.84-1-5.51-1.78-7.93-2.72-4.86-1.79-8.85-3.47-11.85-4.82l-5.49-2-14.51-5.4c-6-2.25-13.09-4.85-20.81-7.36a186,186,0,0,0-24.79-6.53c-8.69-1.54-17.82-2-26.24-.36a45.07,45.07,0,0,0-11.78,3.82,43.56,43.56,0,0,0-9.33,6.08A33.19,33.19,0,0,0,21,38.8c-1.42,3.91-1.39,6.41-1.13,6.64" transform="translate(-19.7 -14.28)"/><path class="cls-3" d="M358,158.77l-1.44.44c-1,.28-2.4.68-4.33,1.11a110.26,110.26,0,0,1-17.3,2.3l-6.06.27-6.72-.09-1.79,0-1.81-.11-3.75-.25c-1.27-.1-2.58-.15-3.9-.3l-4-.45a368.9,368.9,0,0,1-37-6.6c-13.6-3-28.4-6.53-44.41-9.12l-6.06-.84c-1-.13-2-.31-3.07-.41l-3.1-.3c-4.15-.45-8.36-.77-12.66-.9a213.72,213.72,0,0,0-26.58.82,300.41,300.41,0,0,0-56.77,11.47c-9.74,2.86-19.73,6.27-30.25,8.85s-21.65,4.31-32.88,3.3" transform="translate(-19.7 -14.28)"/><path class="cls-3" d="M383.24,100.19l.23.42c.15.28.39.69.73,1.21a43.61,43.61,0,0,0,3.29,4.39,47.13,47.13,0,0,1,5.31,7.27,25.92,25.92,0,0,1,3.15,12,33.8,33.8,0,0,1-.7,7.36,39.44,39.44,0,0,1-2.58,7.68A38.57,38.57,0,0,1,388,148a39.25,39.25,0,0,1-3.14,3.49l-1.76,1.61-1.87,1.54a56.43,56.43,0,0,1-18.21,9.12,85.19,85.19,0,0,1-10.57,2.45c-1.81.31-3.65.56-5.51.77s-3.72.29-5.61.44c-15.16,1.17-31.39-.66-47.75-3.76S260.69,156,244,152.15s-33.56-6.79-50.5-6.9a243.76,243.76,0,0,0-50.26,4.94" transform="translate(-19.7 -14.28)"/></g></svg>