<?xml version="1.0" standalone="no"?>
<!DOCTYPE svg PUBLIC "-//W3C//DTD SVG 20010904//EN"
 "http://www.w3.org/TR/2001/REC-SVG-20010904/DTD/svg10.dtd">
<svg version="1.0" xmlns="http://www.w3.org/2000/svg"
 width="900.000000pt" height="900.000000pt" viewBox="0 0 900.000000 900.000000"
 preserveAspectRatio="xMidYMid meet">
<metadata>
Created by potrace 1.11, written by Peter Selinger 2001-2013
</metadata>
<g transform="translate(0.000000,900.000000) scale(0.100000,-0.100000)"
fill="#000000" stroke="none">
<path d="M1745 8730 c-146 -24 -190 -34 -315 -76 -252 -85 -475 -227 -675
-428 -135 -137 -215 -247 -321 -444 -37 -68 -103 -246 -125 -335 -23 -89 -24
-93 -33 -152 -4 -22 -10 -56 -13 -75 -4 -19 -8 -1234 -9 -2700 -2 -2853 -4
-2716 46 -2933 47 -201 133 -395 255 -573 254 -372 676 -651 1105 -730 14 -3
32 -7 40 -9 8 -2 44 -8 80 -12 81 -10 5342 -11 5425 -1 33 4 85 12 115 18 30
6 66 13 80 16 14 3 40 9 58 15 18 6 39 12 45 13 59 10 257 96 366 158 251 144
491 379 633 621 124 211 203 438 235 677 5 30 8 1257 8 2725 0 2175 -2 2685
-13 2750 -66 393 -226 710 -497 981 -234 234 -542 406 -840 468 -5 1 -25 6
-43 10 -145 34 -171 34 -2857 34 -2487 0 -2646 -1 -2750 -18z"/>
</g>
</svg>
